<svg id="Capa_1" data-name="Capa 1" xmlns="http://www.w3.org/2000/svg" viewBox="0 0 523.77 554.04"><defs><style>.cls-1{stroke:#000;}.cls-1,.cls-2{stroke-miterlimit:10;}.cls-2{stroke:#0a0b09;}.cls-3{fill:#7f7f7f;}.cls-4{fill:#d20a11;}</style></defs><title>BIRRA</title><path id="AsaArr" class="cls-1" d="M410.85,210.64a4.11,4.11,0,0,1,2.21-2.55,4.25,4.25,0,0,1,4.94,1.7c1.3,3.16,9.68,22.75,29.11,27.74a37.09,37.09,0,0,0,13.78.85c3,0,5.58,1.74,6.13,3.92.72,2.83-1.82,6.64-6.13,7a37.82,37.82,0,0,0-15.15,7.32c-18,14.62-14.46,41.27-14.12,43.57a2.64,2.64,0,0,1-2.56,2.55,2.54,2.54,0,0,1-2.21-1.7Q418.85,255.83,410.85,210.64Z" transform="translate(-36.04 -125.79)"/><path id="AsaMed" class="cls-2" d="M449.83,230.55a61,61,0,0,1,18.21,0,10.48,10.48,0,0,1,9.7,13.11,4.89,4.89,0,0,0,6.64,6A29.45,29.45,0,0,1,498.51,254c6,3.83,8.95,9.06,11.06,13.11,7.81,15,11.79,22.56,15,37.45,1.05,4.86,4.76,23.29,2.56,50.38a219.08,219.08,0,0,1-14.47,62.13,10.36,10.36,0,0,1,.34,2.72c-.08,6.32-6.2,10.49-7.32,11.23a13.93,13.93,0,0,0-8.34,6.3,13.65,13.65,0,0,0-1.7,8.34c-.26,2.31.78,4.32,2.38,4.94a3.59,3.59,0,0,0,2.38,0,62.08,62.08,0,0,0,46.81-35.75,191.47,191.47,0,0,0-3.57-143A54.5,54.5,0,0,0,502.43,220a135.65,135.65,0,0,0-52.6,1.87,4.58,4.58,0,0,0-4.43,3.58A4.64,4.64,0,0,0,449.83,230.55Z" transform="translate(-36.04 -125.79)"/><path id="AsaAba" class="cls-2" d="M443.87,397.19c-.2-2.29.66-4.44,2.22-5.28,2.23-1.2,6.17.18,7.65,4.09,2.75,7.21,4.54,8.18,9.2,12.26,3.25,2.84,6.79,4.11,10,5.27,1.24.45,3.95,1.09,9.36,2.38,6.64,1.59,8.38,1.88,9.53,2a66,66,0,0,0,8,.68c2.62-.22,4.69,1.24,4.94,2.72.29,1.7-1.68,4.19-4.94,4.26-2.89.45-6.9,4.43-7.83,6.47-4.55,10.06-11.79,26.37-14.81,41.87-5.71,29.39-3.68,51.42-2.72,57.53-1.55,3.07-3.27,3.73-5.28,0Z" transform="translate(-36.04 -125.79)"/><path id="CarcDe" d="M396.55,172a5.7,5.7,0,0,0-1.53-2.94,5.85,5.85,0,0,0-3.83-1.66l-131.74-38v-3.57h-6.73v554h6.22L471.11,614V606Z" transform="translate(-36.04 -125.79)"/><path id="CarcIz" d="M110.6,172a5.62,5.62,0,0,1,1.53-2.94A5.85,5.85,0,0,1,116,167.4c43.91-12.68,88.25-25.36,132.17-38v-3.57h5.44v554h-5.36L36,614V606Z" transform="translate(-36.04 -125.79)"/><path id="DestAsaAba" class="cls-3" d="M535.79,296.6c.81-3.87,4.29-6,7-5.28a5.65,5.65,0,0,1,3.74,4.42,244.09,244.09,0,0,1,4.6,78,3.19,3.19,0,1,1-6.13,1c-.45-6.5-1.2-13.51-2.38-20.93-.85-5.28-1.83-10.28-2.9-15-1.4-8.15-2.54-17-3.23-26.55Q535.89,304.1,535.79,296.6Z" transform="translate(-36.04 -125.79)"/><path id="DestAsaArr" class="cls-3" d="M497.32,228.68a3.59,3.59,0,0,1,5.28-4.59,50.56,50.56,0,0,1,29.95,34.38,4.34,4.34,0,0,1-1,3.91,4.28,4.28,0,0,1-3.57,1.19,52.52,52.52,0,0,1-30.64-34.89Z" transform="translate(-36.04 -125.79)"/><polygon id="DestIz" class="cls-3" points="171.75 21.53 212.09 61.17 212.09 9.62 171.75 21.53"/><polygon id="DestDe" class="cls-3" points="223.4 9.62 353.36 49.11 390.98 265.96 223.4 124.68 223.4 9.62"/><path id="RextIz" class="cls-4" d="M127.45,184.19a5.83,5.83,0,0,1,11.23,0L66.17,606.83a5.65,5.65,0,0,1-5.79,3.91,5.6,5.6,0,0,1-4.76-3.91Q91.53,395.51,127.45,184.19Z" transform="translate(-36.04 -125.79)"/><path id="RmedIz" class="cls-4" d="M170.17,171.32a5.28,5.28,0,0,1,10.21,0q-23,227.24-45.95,454.47a6.75,6.75,0,0,1-5.62,2.89,6.63,6.63,0,0,1-4.94-2.89Q147,398.56,170.17,171.32Z" transform="translate(-36.04 -125.79)"/><path id="RintIz" class="cls-4" d="M215.28,156.68a5,5,0,0,1,9.7,0L200.47,646.21a5.79,5.79,0,0,1-10.56,0Z" transform="translate(-36.04 -125.79)"/><path id="RextDe" class="cls-4" d="M380.38,181.19a5.83,5.83,0,0,0-11.23,0l72.51,422.64a5.65,5.65,0,0,0,5.79,3.91,5.6,5.6,0,0,0,4.76-3.91Q416.3,392.51,380.38,181.19Z" transform="translate(-36.04 -125.79)"/><path id="RmedDe" class="cls-4" d="M337.66,171.32a5.28,5.28,0,0,0-10.21,0q23,227.24,45.95,454.47a6.75,6.75,0,0,0,5.62,2.89,6.63,6.63,0,0,0,4.94-2.89Q360.8,398.56,337.66,171.32Z" transform="translate(-36.04 -125.79)"/><path id="RintDe" class="cls-4" d="M292.55,159.68a5,5,0,0,0-9.7,0l24.51,489.53a5.78,5.78,0,0,0,10.55,0Z" transform="translate(-36.04 -125.79)"/></svg>